# xmcd CD database file
#
# Track frame offsets:
#	150
#	17684
#	34852
#	48080
#	58961
#	75087
#	86597
#	101306
#
# Disc length: 1574 seconds
#
# Revision: 2
# Processed by: cddbd v1.5.2PL0 Copyright (c) Steve Scherf et al.
# Submitted via: CDex 1.70beta2
#
DISCID=50062408
DTITLE=Amy Winehouse - Back To Black (Deluxe Edition) Disc 2
DYEAR=2007
DGENRE=Soul
TTITLE0=Valerie
TTITLE1=Cupid (Deluxe Edition Version)
TTITLE2=Monkey Man
TTITLE3=Some Unholy War
TTITLE4=Hey Little Rich Girl Feat. Zalon and Ade
TTITLE5=You' re Wondering Now
TTITLE6=To Know Him Is To Love Him (Napster Live)
TTITLE7=Love Is A Losing Game (Original Demo)
EXTD=YEAR: 2007
EXTT0=
EXTT1=
EXTT2=
EXTT3=
EXTT4=
EXTT5=
EXTT6=
EXTT7=
PLAYORDER=
